# xmcd CD database file
#
# Track frame offsets:
#	150
#	23144
#	38692
#	57439
#	78285
#	84676
#	101708
#	116215
#	133218
#	147458
#	166396
#	191886
#	208021
#	226974
#
# Disc length: 3259 seconds
#
# Revision: 0
# Processed by: cddbd v1.5PL3 Copyright (c) Steve Scherf et al.
# Submitted via: CDex 1.51
#
DISCID=cb0cb90e
DTITLE=Aimee Mann - Bachelor No. 2 Or, The Last Remains Of The Dodo
DYEAR=1999
DGENRE=Blues
TTITLE0=How Am I Different
TTITLE1=Nothing Is Good Enough
TTITLE2=Red Vines
TTITLE3=The Fall Of The World's Own Optimist
TTITLE4=Satellite
TTITLE5=Deathly
TTITLE6=Ghost World
TTITLE7=Calling It Quits
TTITLE8=Susan
TTITLE9=Backfire
TTITLE10=It Takes All Kinds
TTITLE11=Save Me
TTITLE12=Just Like Anyone
TTITLE13=You Do
EXTD=YEAR: 1999
EXTT0=
EXTT1=
EXTT2=
EXTT3=
EXTT4=
EXTT5=
EXTT6=
EXTT7=
EXTT8=
EXTT9=
EXTT10=
EXTT11=
EXTT12=
EXTT13=
PLAYORDER=
